<svg viewBox="0 0 64 64" xmlns="http://www.w3.org/2000/svg">
  <defs>
    <linearGradient id="bgGradient" x1="0%" y1="0%" x2="100%" y2="100%">
      <stop offset="0%" style="stop-color:#1a1a1a"/>
      <stop offset="100%" style="stop-color:#000000"/>
    </linearGradient>
    
    <linearGradient id="redGradient" x1="0%" y1="0%" x2="100%" y2="100%">
      <stop offset="0%" style="stop-color:#ff4757"/>
      <stop offset="100%" style="stop-color:#c44569"/>
    </linearGradient>
    
    <linearGradient id="blueGradient" x1="0%" y1="0%" x2="100%" y2="100%">
      <stop offset="0%" style="stop-color:#3742fa"/>
      <stop offset="100%" style="stop-color:#2f3542"/>
    </linearGradient>
    
    <linearGradient id="greenGradient" x1="0%" y1="0%" x2="100%" y2="100%">
      <stop offset="0%" style="stop-color:#2ed573"/>
      <stop offset="100%" style="stop-color:#1e90ff"/>
    </linearGradient>
    
    <linearGradient id="yellowGradient" x1="0%" y1="0%" x2="100%" y2="100%">
      <stop offset="0%" style="stop-color:#ffa502"/>
      <stop offset="100%" style="stop-color:#ff6348"/>
    </linearGradient>
  </defs>
  
  <!-- Background -->
  <rect width="64" height="64" rx="12" fill="url(#bgGradient)" stroke="#333" stroke-width="1"/>
  
  <!-- T-piece (red) -->
  <g>
    <rect x="20" y="12" width="8" height="8" fill="url(#redGradient)" stroke="#fff" stroke-width="0.5" rx="1"/>
    <rect x="28" y="12" width="8" height="8" fill="url(#redGradient)" stroke="#fff" stroke-width="0.5" rx="1"/>
    <rect x="36" y="12" width="8" height="8" fill="url(#redGradient)" stroke="#fff" stroke-width="0.5" rx="1"/>
    <rect x="28" y="20" width="8" height="8" fill="url(#redGradient)" stroke="#fff" stroke-width="0.5" rx="1"/>
  </g>
  
  <!-- L-piece (blue) -->
  <g>
    <rect x="12" y="28" width="8" height="8" fill="url(#blueGradient)" stroke="#fff" stroke-width="0.5" rx="1"/>
    <rect x="12" y="36" width="8" height="8" fill="url(#blueGradient)" stroke="#fff" stroke-width="0.5" rx="1"/>
    <rect x="12" y="44" width="8" height="8" fill="url(#blueGradient)" stroke="#fff" stroke-width="0.5" rx="1"/>
    <rect x="20" y="44" width="8" height="8" fill="url(#blueGradient)" stroke="#fff" stroke-width="0.5" rx="1"/>
  </g>
  
  <!-- Square piece (yellow) -->
  <g>
    <rect x="36" y="28" width="8" height="8" fill="url(#yellowGradient)" stroke="#fff" stroke-width="0.5" rx="1"/>
    <rect x="44" y="28" width="8" height="8" fill="url(#yellowGradient)" stroke="#fff" stroke-width="0.5" rx="1"/>
    <rect x="36" y="36" width="8" height="8" fill="url(#yellowGradient)" stroke="#fff" stroke-width="0.5" rx="1"/>
    <rect x="44" y="36" width="8" height="8" fill="url(#yellowGradient)" stroke="#fff" stroke-width="0.5" rx="1"/>
  </g>
  
  <!-- S-piece (green) -->
  <g>
    <rect x="28" y="44" width="8" height="8" fill="url(#greenGradient)" stroke="#fff" stroke-width="0.5" rx="1"/>
    <rect x="36" y="44" width="8" height="8" fill="url(#greenGradient)" stroke="#fff" stroke-width="0.5" rx="1"/>
    <rect x="36" y="52" width="8" height="8" fill="url(#greenGradient)" stroke="#fff" stroke-width="0.5" rx="1"/>
    <rect x="44" y="52" width="8" height="8" fill="url(#greenGradient)" stroke="#fff" stroke-width="0.5" rx="1"/>
  </g>
  
  <!-- Subtle glow effect -->
  <rect width="64" height="64" rx="12" fill="none" stroke="url(#blueGradient)" stroke-width="1" opacity="0.3"/>
</svg>